<?xml version="1.0" standalone="no"?><!DOCTYPE svg PUBLIC "-//W3C//DTD SVG 1.1//EN" "http://www.w3.org/Graphics/SVG/1.1/DTD/svg11.dtd"><svg xmlns:xlink="http://www.w3.org/1999/xlink" version="1.1" style="font-family:dosis, sans-serif;font-size:12px;" xmlns="http://www.w3.org/2000/svg" width="600" height="400"><desc>Created with Highcharts 4.2.1</desc><defs><clipPath id="highcharts-6"><rect x="0" y="0" width="580" height="375"></rect></clipPath></defs><g class="highcharts-series-group" ><g class="highcharts-series highcharts-series-0"  transform="translate(10,10) scale(1 1)"><path fill="#7cb5ec" d="M 112.50001472638473 271.0723039858121 A 177.5 177.5 0 0 1 122.4603243382696 212.37656544382463 L 206.23016216913481 241.68828272191232 A 88.75 88.75 0 0 0 201.25000736319237 271.03615199290607 Z" stroke="#FFFFFF" stroke-width="1" stroke-linejoin="round" transform="translate(0,0)"></path><path fill="#f7a35c" d="M 122.51903153288603 212.20905510780102 A 177.5 177.5 0 0 1 389.754196762011 124.182595621752 L 339.8770983810055 197.591297810876 A 88.75 88.75 0 0 0 206.25951576644303 241.6045275539005 Z" stroke="#FFFFFF" stroke-width="1" stroke-linejoin="round" transform="translate(0,0)"></path><path fill="#90ee7e" d="M 389.90096426482546 124.2824232105844 A 177.5 177.5 0 0 1 464.23835825890814 237.1290019154975 L 377.1191791294541 254.06450095774875 A 88.75 88.75 0 0 0 339.95048213241273 197.6412116052922 Z" stroke="#FFFFFF" stroke-width="1" stroke-linejoin="round" transform="translate(0,0)"></path><path fill="#7798BF" d="M 464.27214213217565 237.30325718021433 A 177.5 177.5 0 0 1 467.3785151103499 264.43399838201543 L 378.68925755517495 267.7169991910077 A 88.75 88.75 0 0 0 377.1360710660878 254.15162859010715 Z" stroke="#FFFFFF" stroke-width="1" stroke-linejoin="round" transform="translate(0,0)"></path><path fill="#aaeeee" d="M 467.3849924216234 264.6113801505632 A 177.5 177.5 0 0 1 467.49432003029324 269.5800151466182 L 378.7471600151466 270.2900075733091 A 88.75 88.75 0 0 0 378.69249621081167 267.80569007528163 Z" stroke="#FFFFFF" stroke-width="1" stroke-linejoin="round" transform="translate(0,0)"></path><path fill="#ff0066" d="M 467.49565126775735 269.7575101470585 A 177.5 177.5 0 0 1 467.49991125000736 270.82250002958335 L 378.7499556250037 270.9112500147917 A 88.75 88.75 0 0 0 378.7478256338787 270.37875507352925 Z" stroke="#FFFFFF" stroke-width="1" stroke-linejoin="round" transform="translate(0,0)"></path></g><g class="highcharts-markers highcharts-series-0"  transform="translate(10,10) scale(1 1)"></g></g><text x="300" text-anchor="middle" class="highcharts-title"  style="color:#333333;font-size:16px;font-weight:bold;text-transform:uppercase;fill:#333333;width:536px;" y="238"><tspan>Browser</tspan><tspan x="300" dy="19">shares</tspan><tspan x="300" dy="19">2015</tspan></text><g class="highcharts-data-labels highcharts-series-0"  visibility="visible" transform="translate(10,10) scale(1 1)" opacity="1"><g  style="" transform="translate(144,240)"><text x="5"  style="font-size:11px;font-weight:bold;color:white;text-shadow:0px 1px 2px black;fill:white;text-rendering:geometricprecision;" y="16"><tspan>Firefox</tspan></text></g><g  style="" transform="translate(241,140)"><text x="5"  style="font-size:11px;font-weight:bold;color:white;text-shadow:0px 1px 2px black;fill:white;text-rendering:geometricprecision;" y="16"><tspan>IE</tspan></text></g><g  style="" transform="translate(374,191)"><text x="5"  style="font-size:11px;font-weight:bold;color:white;text-shadow:0px 1px 2px black;fill:white;text-rendering:geometricprecision;" y="16"><tspan>Chrome</tspan></text></g><g  style="" transform="translate(399,247)"><text x="5"  style="font-size:11px;font-weight:bold;color:white;text-shadow:0px 1px 2px black;fill:white;text-rendering:geometricprecision;" y="16"><tspan>Safari</tspan></text></g><g  style="" transform="translate(399,259)"><text x="5"  style="font-size:11px;font-weight:bold;color:white;text-shadow:0px 1px 2px black;fill:white;text-rendering:geometricprecision;" y="16"><tspan>Opera</tspan></text></g></g><g class="highcharts-legend" ><g ><g></g></g></g><g class="highcharts-tooltip"  style="cursor:default;padding:0;pointer-events:none;white-space:nowrap;" transform="translate(0,-9999)"><path fill="rgb(219,219,216)" fill-opacity="0.8" d="M 3 0 L 13 0 C 16 0 16 0 16 3 L 16 13 C 16 16 16 16 13 16 L 3 16 C 0 16 0 16 0 13 L 0 3 C 0 0 0 0 3 0"></path><text x="8"  style="font-size:12px;color:#333333;fill:#333333;" y="20"></text></g><text x="590" text-anchor="end"  style="cursor:pointer;color:#909090;font-size:9px;fill:#909090;" y="395">Highcharts.com</text></svg>